<svg aria-hidden="true" style="position: absolute; width: 0; height: 0; overflow: hidden;" version="1.1" xmlns="http://www.w3.org/2000/svg" xmlns:xlink="http://www.w3.org/1999/xlink">
<defs>
<symbol id="icon-left" viewBox="0 0 32 32">
<path fill="none" stroke="#fff" style="stroke: var(--color1, #fff)" stroke-linejoin="round" stroke-linecap="round" stroke-miterlimit="4" stroke-width="2.6667" d="M20 25.333l-9.284-9.284 9.284-9.284"></path>
</symbol>
<symbol id="icon-right" viewBox="0 0 32 32">
<path fill="none" stroke="#fff" style="stroke: var(--color1, #fff)" stroke-linejoin="round" stroke-linecap="round" stroke-miterlimit="4" stroke-width="2.6667" d="M12 6.667l9.284 9.284-9.284 9.284"></path>
</symbol>
<symbol id="icon-instagram" viewBox="0 0 32 32">
<path  d="M31.563 16.063c0 2.175-0.044 4.356 0.013 6.531 0.094 3.85-2.325 6.825-5.406 8.15-1.237 0.531-2.538 0.813-3.881 0.813-4.206 0.006-8.419 0.063-12.625-0.019-3.169-0.063-5.775-1.387-7.644-4-0.981-1.375-1.45-2.937-1.45-4.631 0-4.481 0-8.956 0-13.438 0-3.656 1.781-6.213 4.944-7.875 1.375-0.719 2.869-1.025 4.425-1.031 4.081 0 8.169-0.025 12.25 0.012 3.169 0.025 5.813 1.238 7.763 3.787 1.087 1.425 1.613 3.063 1.613 4.862 0 2.275 0 4.556 0 6.838zM2.875 16.063c0 2.294 0 4.581 0 6.875 0 1.025 0.237 1.987 0.769 2.856 1.394 2.281 3.5 3.394 6.112 3.437 4.194 0.063 8.394 0.025 12.594 0.013 1.031 0 2.031-0.213 2.963-0.656 2.537-1.213 3.956-3.144 3.944-6.044-0.025-4.437-0.006-8.875-0.006-13.313 0-1.256-0.356-2.406-1.1-3.419-1.437-1.944-3.425-2.9-5.8-2.925-4.187-0.050-8.375-0.019-12.562-0.013-0.894 0-1.756 0.181-2.594 0.494-2.3 0.856-4.438 3.025-4.338 6.219 0.075 2.162 0.019 4.319 0.019 6.475z"></path>
<path  d="M16.1 22.687c-4.031 0-7.281-3.213-7.287-7.213-0.006-3.937 3.269-7.162 7.275-7.162 4.019-0.006 7.281 3.213 7.288 7.181 0 3.963-3.256 7.187-7.275 7.194zM16.1 20.375c2.744 0 4.969-2.194 4.963-4.894-0.006-2.675-2.231-4.862-4.963-4.862-2.744 0-4.981 2.181-4.981 4.875 0.006 2.7 2.238 4.887 4.981 4.881z"></path>
<path  d="M24.219 6.125c0.844 0 1.531 0.719 1.531 1.6-0.006 0.881-0.7 1.594-1.544 1.588-0.831-0.006-1.513-0.719-1.513-1.581-0.006-0.881 0.681-1.606 1.525-1.606z"></path>
</symbol>
<symbol id="icon-mail" viewBox="0 0 32 32">
<path fill="none" stroke="#fff" style="stroke: var(--color1, #fff)" stroke-linejoin="round" stroke-linecap="butt" stroke-miterlimit="4" stroke-width="2.8235" d="M1.882 10.353c0-2.079 1.685-3.765 3.765-3.765h20.706c2.079 0 3.765 1.685 3.765 3.765v12.471c0 2.079-1.685 3.765-3.765 3.765h-20.706c-2.079 0-3.765-1.685-3.765-3.765v-12.471z"></path>
<path fill="none" stroke="#fff" style="stroke: var(--color1, #fff)" stroke-linejoin="round" stroke-linecap="butt" stroke-miterlimit="4" stroke-width="2.8235" d="M4.558 9.041c-0.949-0.87-0.334-2.452 0.954-2.452h20.977c1.288 0 1.903 1.582 0.954 2.452l-7.626 6.991c-2.159 1.979-5.473 1.979-7.632 0l-7.626-6.991z"></path>
</symbol>
<symbol id="icon-telegram" viewBox="0 0 32 32">
<path  d="M11.867 26.548l0.435-6.712 11.931-10.981c0.528-0.492-0.109-0.73-0.808-0.302l-14.727 9.505-6.369-2.063c-1.367-0.397-1.383-1.365 0.311-2.063l24.81-9.775c1.134-0.524 2.221 0.286 1.787 2.063l-4.226 20.328c-0.295 1.444-1.15 1.793-2.33 1.127l-6.432-4.856-3.091 3.063c-0.357 0.365-0.652 0.666-1.289 0.666z"></path>
</symbol>
<symbol id="icon-whatsapp" viewBox="0 0 32 32">
<path  d="M32 15.588c0 8.609-7.033 15.588-15.709 15.588-2.754 0-5.342-0.704-7.594-1.94l-8.697 2.764 2.836-8.363c-1.43-2.349-2.254-5.104-2.254-8.049 0-8.609 7.033-15.588 15.709-15.588 8.677 0 15.709 6.979 15.709 15.588zM16.291 2.482c-7.283 0-13.207 5.879-13.207 13.105 0 2.868 0.935 5.523 2.516 7.684l-1.65 4.867 5.076-1.613c2.085 1.369 4.583 2.168 7.267 2.168 7.282 0 13.207-5.878 13.207-13.105s-5.925-13.106-13.208-13.106zM24.224 19.178c-0.097-0.159-0.353-0.255-0.738-0.446s-2.279-1.116-2.631-1.243c-0.353-0.127-0.611-0.191-0.867 0.191s-0.995 1.243-1.22 1.498c-0.225 0.256-0.449 0.288-0.835 0.096s-1.625-0.595-3.096-1.896c-1.145-1.013-1.918-2.263-2.142-2.646s-0.023-0.589 0.169-0.779c0.174-0.171 0.385-0.446 0.578-0.669s0.257-0.382 0.385-0.637c0.129-0.255 0.065-0.478-0.032-0.67s-0.867-2.071-1.188-2.836c-0.321-0.764-0.641-0.637-0.866-0.637s-0.481-0.032-0.738-0.032-0.674 0.096-1.027 0.478c-0.353 0.383-1.347 1.307-1.347 3.187s1.379 3.697 1.572 3.951c0.192 0.255 2.663 4.238 6.578 5.768s3.915 1.019 4.621 0.955c0.705-0.064 2.278-0.924 2.6-1.816 0.32-0.893 0.32-1.658 0.224-1.817z"></path>
</symbol>
<symbol id="icon-YOUTUBE" viewBox="0 0 32 32">
<path d="M16.275 28.063c-3.569-0.113-6.963-0.2-10.356-0.331-0.731-0.031-1.475-0.144-2.188-0.312-1.337-0.313-2.263-1.119-2.737-2.438-0.381-1.062-0.519-2.156-0.619-3.269-0.219-2.613-0.219-5.225-0.112-7.838 0.063-1.475 0.1-2.962 0.494-4.394 0.238-0.856 0.525-1.694 1.219-2.313 0.731-0.656 1.587-1.050 2.563-1.094 2.675-0.131 5.344-0.294 8.019-0.319 3.6-0.037 7.206 0.013 10.806 0.081 1.556 0.031 3.125 0.112 4.669 0.313 1.412 0.188 2.469 0.975 3.031 2.35 0.431 1.056 0.594 2.162 0.687 3.287 0.244 2.819 0.25 5.637 0.113 8.456-0.069 1.431-0.137 2.869-0.544 4.263-0.463 1.6-1.444 2.656-3.081 3.019-0.637 0.138-1.3 0.188-1.95 0.213-3.4 0.119-6.794 0.225-10.012 0.325zM12.819 20.956c2.85-1.475 5.669-2.937 8.544-4.431-2.869-1.5-5.687-2.969-8.544-4.462 0 2.981 0 5.912 0 8.894z"></path>
</symbol>
<symbol id="icon-Call" viewBox="0 0 32 32">
<path fill="none" stroke="#fff" style="stroke: var(--color1, #fff)" stroke-linejoin="round" stroke-linecap="round" stroke-miterlimit="4" stroke-width="3.2" d="M29.252 24.081l-0.256 2.307c-0.22 1.983-1.805 3.508-3.769 3.157-3.335-0.595-8.751-2.481-14.521-8.25s-7.656-11.187-8.251-14.522c-0.351-1.965 1.174-3.55 3.157-3.77l2.306-0.256c1.691-0.188 3.332 0.647 4.176 2.124l1.020 1.786c0.803 1.406 0.566 3.176-0.579 4.321-0.849 0.849-1.208 2.077-0.643 3.137 0.488 0.916 1.289 2.113 2.584 3.408s2.492 2.096 3.408 2.584c1.060 0.564 2.288 0.206 3.137-0.643 1.145-1.145 2.915-1.382 4.321-0.579l1.786 1.020c1.477 0.844 2.312 2.485 2.124 4.176z"></path>
</symbol>
<symbol id="icon-logo" viewBox="0 0 130 32">
<path  d="M0 31.47v-30.939h6.831v24.751h15.48v6.188h-22.311z"></path>
<path d="M52.565 27.359c-3.134 3.094-7.067 4.641-11.798 4.641s-8.664-1.547-11.798-4.641c-3.105-3.094-4.657-6.88-4.657-11.359 0-4.449 1.567-8.221 4.701-11.315 3.164-3.123 7.112-4.685 11.843-4.685s8.649 1.547 11.754 4.641c3.135 3.094 4.702 6.88 4.702 11.359 0 4.449-1.582 8.236-4.746 11.359zM34.113 22.895c1.774 1.886 4.022 2.829 6.742 2.829s4.953-0.928 6.698-2.785c1.745-1.886 2.617-4.199 2.617-6.939 0-2.711-0.887-5.009-2.661-6.895s-4.022-2.829-6.742-2.829c-2.721 0-4.953 0.943-6.698 2.829-1.745 1.856-2.617 4.155-2.617 6.895 0 2.711 0.887 5.009 2.661 6.895z"></path>
<path d="M78.318 32c-4.82 0-8.753-1.503-11.798-4.508-3.016-3.006-4.524-6.836-4.524-11.492 0-4.449 1.553-8.221 4.657-11.315 3.105-3.123 6.979-4.685 11.621-4.685 2.691 0 4.968 0.354 6.831 1.061 1.863 0.678 3.652 1.738 5.367 3.182l-4.302 5.171c-1.301-1.090-2.558-1.886-3.77-2.387s-2.661-0.751-4.347-0.751c-2.484 0-4.598 0.958-6.343 2.873-1.715 1.886-2.573 4.169-2.573 6.851 0 2.829 0.872 5.171 2.617 7.028 1.774 1.856 4.036 2.785 6.786 2.785 2.543 0 4.687-0.619 6.432-1.856v-4.42h-6.875v-5.878h13.484v13.436c-3.874 3.271-8.294 4.906-13.262 4.906z"></path>
<path d="M125.032 27.359c-3.134 3.094-7.067 4.641-11.798 4.641s-8.664-1.547-11.798-4.641c-3.105-3.094-4.657-6.88-4.657-11.359 0-4.449 1.567-8.221 4.702-11.315 3.164-3.123 7.112-4.685 11.843-4.685s8.649 1.547 11.754 4.641c3.134 3.094 4.702 6.88 4.702 11.359 0 4.449-1.582 8.236-4.746 11.359zM106.58 22.895c1.774 1.886 4.022 2.829 6.742 2.829s4.953-0.928 6.698-2.785c1.745-1.886 2.617-4.199 2.617-6.939 0-2.711-0.887-5.009-2.661-6.895s-4.022-2.829-6.742-2.829c-2.721 0-4.953 0.943-6.698 2.829-1.745 1.856-2.617 4.155-2.617 6.895 0 2.711 0.887 5.009 2.661 6.895z"></path>
</symbol>
</defs>
</svg>
