<svg aria-hidden="true" style="position: absolute; width: 0; height: 0; overflow: hidden;" version="1.1" xmlns="http://www.w3.org/2000/svg" xmlns:xlink="http://www.w3.org/1999/xlink">
<defs>
<symbol id="icon-left" viewBox="0 0 32 32">
<path fill="none" stroke="#fff" style="stroke: var(--color1, #fff)" stroke-linejoin="round" stroke-linecap="round" stroke-miterlimit="4" stroke-width="2.6667" d="M20 25.333l-9.284-9.284 9.284-9.284"></path>
</symbol>
<symbol id="icon-right" viewBox="0 0 32 32">
<path fill="none" stroke="#fff" style="stroke: var(--color1, #fff)" stroke-linejoin="round" stroke-linecap="round" stroke-miterlimit="4" stroke-width="2.6667" d="M12 6.667l9.284 9.284-9.284 9.284"></path>
</symbol>
<symbol id="icon-instagram" viewBox="0 0 32 32">
<path  d="M31.563 16.063c0 2.175-0.044 4.356 0.013 6.531 0.094 3.85-2.325 6.825-5.406 8.15-1.237 0.531-2.538 0.813-3.881 0.813-4.206 0.006-8.419 0.063-12.625-0.019-3.169-0.063-5.775-1.387-7.644-4-0.981-1.375-1.45-2.937-1.45-4.631 0-4.481 0-8.956 0-13.438 0-3.656 1.781-6.213 4.944-7.875 1.375-0.719 2.869-1.025 4.425-1.031 4.081 0 8.169-0.025 12.25 0.012 3.169 0.025 5.813 1.238 7.763 3.787 1.087 1.425 1.613 3.063 1.613 4.862 0 2.275 0 4.556 0 6.838zM2.875 16.063c0 2.294 0 4.581 0 6.875 0 1.025 0.237 1.987 0.769 2.856 1.394 2.281 3.5 3.394 6.112 3.437 4.194 0.063 8.394 0.025 12.594 0.013 1.031 0 2.031-0.213 2.963-0.656 2.537-1.213 3.956-3.144 3.944-6.044-0.025-4.437-0.006-8.875-0.006-13.313 0-1.256-0.356-2.406-1.1-3.419-1.437-1.944-3.425-2.9-5.8-2.925-4.187-0.050-8.375-0.019-12.562-0.013-0.894 0-1.756 0.181-2.594 0.494-2.3 0.856-4.438 3.025-4.338 6.219 0.075 2.162 0.019 4.319 0.019 6.475z"></path>
<path  d="M16.1 22.687c-4.031 0-7.281-3.213-7.287-7.213-0.006-3.937 3.269-7.162 7.275-7.162 4.019-0.006 7.281 3.213 7.288 7.181 0 3.963-3.256 7.187-7.275 7.194zM16.1 20.375c2.744 0 4.969-2.194 4.963-4.894-0.006-2.675-2.231-4.862-4.963-4.862-2.744 0-4.981 2.181-4.981 4.875 0.006 2.7 2.238 4.887 4.981 4.881z"></path>
<path  d="M24.219 6.125c0.844 0 1.531 0.719 1.531 1.6-0.006 0.881-0.7 1.594-1.544 1.588-0.831-0.006-1.513-0.719-1.513-1.581-0.006-0.881 0.681-1.606 1.525-1.606z"></path>
</symbol>
<symbol id="icon-mail" viewBox="0 0 32 32">
<path fill="none" stroke="#fff" style="stroke: var(--color1, #fff)" stroke-linejoin="round" stroke-linecap="butt" stroke-miterlimit="4" stroke-width="2.8235" d="M1.882 10.353c0-2.079 1.685-3.765 3.765-3.765h20.706c2.079 0 3.765 1.685 3.765 3.765v12.471c0 2.079-1.685 3.765-3.765 3.765h-20.706c-2.079 0-3.765-1.685-3.765-3.765v-12.471z"></path>
<path fill="none" stroke="#fff" style="stroke: var(--color1, #fff)" stroke-linejoin="round" stroke-linecap="butt" stroke-miterlimit="4" stroke-width="2.8235" d="M4.558 9.041c-0.949-0.87-0.334-2.452 0.954-2.452h20.977c1.288 0 1.903 1.582 0.954 2.452l-7.626 6.991c-2.159 1.979-5.473 1.979-7.632 0l-7.626-6.991z"></path>
</symbol>
<symbol id="icon-telegram" viewBox="0 0 32 32">
<path  d="M11.867 26.548l0.435-6.712 11.931-10.981c0.528-0.492-0.109-0.73-0.808-0.302l-14.727 9.505-6.369-2.063c-1.367-0.397-1.383-1.365 0.311-2.063l24.81-9.775c1.134-0.524 2.221 0.286 1.787 2.063l-4.226 20.328c-0.295 1.444-1.15 1.793-2.33 1.127l-6.432-4.856-3.091 3.063c-0.357 0.365-0.652 0.666-1.289 0.666z"></path>
</symbol>
<symbol id="icon-whatsapp" viewBox="0 0 32 32">
<path  d="M32 15.588c0 8.609-7.033 15.588-15.709 15.588-2.754 0-5.342-0.704-7.594-1.94l-8.697 2.764 2.836-8.363c-1.43-2.349-2.254-5.104-2.254-8.049 0-8.609 7.033-15.588 15.709-15.588 8.677 0 15.709 6.979 15.709 15.588zM16.291 2.482c-7.283 0-13.207 5.879-13.207 13.105 0 2.868 0.935 5.523 2.516 7.684l-1.65 4.867 5.076-1.613c2.085 1.369 4.583 2.168 7.267 2.168 7.282 0 13.207-5.878 13.207-13.105s-5.925-13.106-13.208-13.106zM24.224 19.178c-0.097-0.159-0.353-0.255-0.738-0.446s-2.279-1.116-2.631-1.243c-0.353-0.127-0.611-0.191-0.867 0.191s-0.995 1.243-1.22 1.498c-0.225 0.256-0.449 0.288-0.835 0.096s-1.625-0.595-3.096-1.896c-1.145-1.013-1.918-2.263-2.142-2.646s-0.023-0.589 0.169-0.779c0.174-0.171 0.385-0.446 0.578-0.669s0.257-0.382 0.385-0.637c0.129-0.255 0.065-0.478-0.032-0.67s-0.867-2.071-1.188-2.836c-0.321-0.764-0.641-0.637-0.866-0.637s-0.481-0.032-0.738-0.032-0.674 0.096-1.027 0.478c-0.353 0.383-1.347 1.307-1.347 3.187s1.379 3.697 1.572 3.951c0.192 0.255 2.663 4.238 6.578 5.768s3.915 1.019 4.621 0.955c0.705-0.064 2.278-0.924 2.6-1.816 0.32-0.893 0.32-1.658 0.224-1.817z"></path>
</symbol>
<symbol id="icon-YOUTUBE" viewBox="0 0 32 32">
<path d="M16.275 28.063c-3.569-0.113-6.963-0.2-10.356-0.331-0.731-0.031-1.475-0.144-2.188-0.312-1.337-0.313-2.263-1.119-2.737-2.438-0.381-1.062-0.519-2.156-0.619-3.269-0.219-2.613-0.219-5.225-0.112-7.838 0.063-1.475 0.1-2.962 0.494-4.394 0.238-0.856 0.525-1.694 1.219-2.313 0.731-0.656 1.587-1.050 2.563-1.094 2.675-0.131 5.344-0.294 8.019-0.319 3.6-0.037 7.206 0.013 10.806 0.081 1.556 0.031 3.125 0.112 4.669 0.313 1.412 0.188 2.469 0.975 3.031 2.35 0.431 1.056 0.594 2.162 0.687 3.287 0.244 2.819 0.25 5.637 0.113 8.456-0.069 1.431-0.137 2.869-0.544 4.263-0.463 1.6-1.444 2.656-3.081 3.019-0.637 0.138-1.3 0.188-1.95 0.213-3.4 0.119-6.794 0.225-10.012 0.325zM12.819 20.956c2.85-1.475 5.669-2.937 8.544-4.431-2.869-1.5-5.687-2.969-8.544-4.462 0 2.981 0 5.912 0 8.894z"></path>
</symbol>
<symbol id="icon-Call" viewBox="0 0 32 32">
<path fill="none" stroke="#fff" style="stroke: var(--color1, #fff)" stroke-linejoin="round" stroke-linecap="round" stroke-miterlimit="4" stroke-width="3.2" d="M29.252 24.081l-0.256 2.307c-0.22 1.983-1.805 3.508-3.769 3.157-3.335-0.595-8.751-2.481-14.521-8.25s-7.656-11.187-8.251-14.522c-0.351-1.965 1.174-3.55 3.157-3.77l2.306-0.256c1.691-0.188 3.332 0.647 4.176 2.124l1.020 1.786c0.803 1.406 0.566 3.176-0.579 4.321-0.849 0.849-1.208 2.077-0.643 3.137 0.488 0.916 1.289 2.113 2.584 3.408s2.492 2.096 3.408 2.584c1.060 0.564 2.288 0.206 3.137-0.643 1.145-1.145 2.915-1.382 4.321-0.579l1.786 1.020c1.477 0.844 2.312 2.485 2.124 4.176z"></path>
</symbol>
<symbol id="icon-logo" viewBox="0 0 130 32">
<path  d="M0 31.47v-30.939h6.831v24.751h15.48v6.188h-22.311z"></path>
<path d="M52.565 27.359c-3.134 3.094-7.067 4.641-11.798 4.641s-8.664-1.547-11.798-4.641c-3.105-3.094-4.657-6.88-4.657-11.359 0-4.449 1.567-8.221 4.701-11.315 3.164-3.123 7.112-4.685 11.843-4.685s8.649 1.547 11.754 4.641c3.135 3.094 4.702 6.88 4.702 11.359 0 4.449-1.582 8.236-4.746 11.359zM34.113 22.895c1.774 1.886 4.022 2.829 6.742 2.829s4.953-0.928 6.698-2.785c1.745-1.886 2.617-4.199 2.617-6.939 0-2.711-0.887-5.009-2.661-6.895s-4.022-2.829-6.742-2.829c-2.721 0-4.953 0.943-6.698 2.829-1.745 1.856-2.617 4.155-2.617 6.895 0 2.711 0.887 5.009 2.661 6.895z"></path>
<path d="M78.318 32c-4.82 0-8.753-1.503-11.798-4.508-3.016-3.006-4.524-6.836-4.524-11.492 0-4.449 1.553-8.221 4.657-11.315 3.105-3.123 6.979-4.685 11.621-4.685 2.691 0 4.968 0.354 6.831 1.061 1.863 0.678 3.652 1.738 5.367 3.182l-4.302 5.171c-1.301-1.090-2.558-1.886-3.77-2.387s-2.661-0.751-4.347-0.751c-2.484 0-4.598 0.958-6.343 2.873-1.715 1.886-2.573 4.169-2.573 6.851 0 2.829 0.872 5.171 2.617 7.028 1.774 1.856 4.036 2.785 6.786 2.785 2.543 0 4.687-0.619 6.432-1.856v-4.42h-6.875v-5.878h13.484v13.436c-3.874 3.271-8.294 4.906-13.262 4.906z"></path>
<path d="M125.032 27.359c-3.134 3.094-7.067 4.641-11.798 4.641s-8.664-1.547-11.798-4.641c-3.105-3.094-4.657-6.88-4.657-11.359 0-4.449 1.567-8.221 4.702-11.315 3.164-3.123 7.112-4.685 11.843-4.685s8.649 1.547 11.754 4.641c3.134 3.094 4.702 6.88 4.702 11.359 0 4.449-1.582 8.236-4.746 11.359zM106.58 22.895c1.774 1.886 4.022 2.829 6.742 2.829s4.953-0.928 6.698-2.785c1.745-1.886 2.617-4.199 2.617-6.939 0-2.711-0.887-5.009-2.661-6.895s-4.022-2.829-6.742-2.829c-2.721 0-4.953 0.943-6.698 2.829-1.745 1.856-2.617 4.155-2.617 6.895 0 2.711 0.887 5.009 2.661 6.895z"></path>
</symbol>
<symbol id="icon-Mail-contacts" viewBox="0 0 35 32">
<path fill="none" stroke="#16c7e4" style="stroke: var(--color1, #16c7e4)" stroke-linejoin="round" stroke-linecap="butt" stroke-miterlimit="4" stroke-width="2.4" d="M1.6 8.533c0-1.767 1.433-3.2 3.2-3.2h25.6c1.767 0 3.2 1.433 3.2 3.2v16.267c0 1.767-1.433 3.2-3.2 3.2h-25.6c-1.767 0-3.2-1.433-3.2-3.2v-16.267z"></path>
<path fill="none" stroke="#16c7e4" style="stroke: var(--color1, #16c7e4)" stroke-linejoin="round" stroke-linecap="butt" stroke-miterlimit="4" stroke-width="2.4" d="M3.874 7.418c-0.807-0.74-0.284-2.085 0.811-2.085h25.83c1.094 0 1.618 1.345 0.811 2.085l-10.482 9.609c-1.835 1.682-4.652 1.682-6.487 0l-10.482-9.609z"></path>
</symbol>
<symbol id="icon-Call-contacts" viewBox="0 0 32 32">
<path fill="none" stroke="#16c7e4" style="stroke: var(--color1, #16c7e4)" stroke-linejoin="round" stroke-linecap="round" stroke-miterlimit="4" stroke-width="2.4" d="M29.33 23.385l-0.428 3.852c-0.165 1.488-1.348 2.633-2.832 2.44-3.213-0.419-9.079-2.095-15.364-8.381s-7.962-12.152-8.382-15.365c-0.194-1.484 0.952-2.667 2.44-2.833l3.851-0.428c1.268-0.141 2.499 0.485 3.132 1.593l1.516 2.654c0.716 1.253 0.504 2.83-0.516 3.85l-0.36 0.36c-0.757 0.757-1.076 1.848-0.592 2.802 0.476 0.938 1.296 2.209 2.681 3.594s2.657 2.204 3.594 2.681c0.954 0.484 2.046 0.165 2.802-0.592l0.36-0.36c1.020-1.020 2.597-1.232 3.85-0.516l2.654 1.516c1.108 0.633 1.734 1.864 1.593 3.132z"></path>
</symbol>
<symbol id="icon-question" viewBox="0 0 22 32">
<path fill="#fff" style="fill: var(--color1, #fff)" d="M8.077 21.258l-1.050-7.312 0.228-0.226c5.324-0.211 7.985-1.61 7.985-4.197 0-1.023-0.365-1.805-1.095-2.347-0.73-0.572-1.764-0.858-3.103-0.858-2.464 0-4.746 1.038-6.845 3.114l-4.198-4.559c2.981-3.25 6.708-4.874 11.18-4.874 3.346 0 6.023 0.827 8.031 2.482s3.012 3.972 3.012 6.951c0 4.844-2.996 7.868-8.989 9.072l-0.502 2.753h-4.654zM6.571 32v-7.221h7.392v7.221h-7.392z"></path>
</symbol>
<symbol id="icon-Arrow-7" viewBox="0 0 123 32">
<path  d="M121.627 22.825c0.088-0.162 0.027-0.364-0.135-0.452l-2.638-1.428c-0.162-0.088-0.364-0.027-0.452 0.135s-0.027 0.364 0.135 0.452l2.345 1.269-1.269 2.345c-0.088 0.162-0.027 0.364 0.135 0.452s0.364 0.027 0.452-0.135l1.428-2.638zM1.14 1.605c0.736 0.526 1.467 1.044 2.194 1.554l0.383-0.545c-0.725-0.51-1.455-1.027-2.19-1.552l-0.387 0.543zM7.72 6.192c1.498 1.017 2.977 2.002 4.438 2.954l0.364-0.559c-1.457-0.95-2.932-1.932-4.427-2.947l-0.375 0.551zM16.651 12.006c1.543 0.957 3.067 1.877 4.576 2.759l0.337-0.575c-1.503-0.879-3.022-1.796-4.561-2.75l-0.351 0.566zM25.881 17.395c1.591 0.867 3.166 1.691 4.729 2.473l0.298-0.596c-1.555-0.778-3.123-1.599-4.708-2.462l-0.319 0.585zM35.429 22.162c1.651 0.745 3.291 1.442 4.923 2.091l0.246-0.619c-1.622-0.645-3.253-1.338-4.895-2.079l-0.274 0.608zM45.358 26.103c1.707 0.582 3.409 1.111 5.111 1.588l0.18-0.642c-1.69-0.474-3.381-1-5.076-1.577l-0.215 0.631zM55.654 28.986c1.747 0.383 3.498 0.711 5.257 0.988l0.103-0.659c-1.746-0.274-3.484-0.601-5.218-0.98l-0.143 0.651zM66.217 30.645c1.763 0.17 3.539 0.289 5.333 0.357l0.025-0.666c-1.781-0.068-3.544-0.186-5.294-0.355l-0.064 0.664zM76.899 31.059c1.757-0.029 3.534-0.103 5.334-0.222l-0.044-0.665c-1.79 0.118-3.555 0.192-5.301 0.221l0.011 0.667zM87.563 30.362c1.737-0.194 3.499-0.426 5.287-0.697l-0.1-0.659c-1.78 0.27-3.533 0.501-5.261 0.694l0.074 0.663zM98.114 28.771c1.72-0.322 3.466-0.677 5.241-1.064l-0.142-0.651c-1.769 0.386-3.509 0.74-5.222 1.060l0.123 0.655zM108.552 26.501c1.693-0.415 3.412-0.858 5.161-1.327l-0.173-0.644c-1.744 0.468-3.459 0.91-5.147 1.323l0.159 0.648zM118.849 23.742c0.853-0.246 1.712-0.498 2.579-0.756l-0.19-0.639c-0.865 0.257-1.723 0.509-2.574 0.755l0.185 0.641zM121.92 22.984c0.175-0.324 0.055-0.728-0.269-0.904l-5.277-2.856c-0.324-0.175-0.728-0.055-0.904 0.269s-0.055 0.728 0.269 0.904l4.69 2.539-2.539 4.69c-0.175 0.324-0.055 0.728 0.269 0.904s0.728 0.055 0.904-0.269l2.856-5.277zM0.946 1.876c0.737 0.526 1.469 1.045 2.196 1.556l0.767-1.091c-0.724-0.509-1.454-1.026-2.188-1.55l-0.775 1.085zM7.532 6.467c1.5 1.019 2.98 2.004 4.443 2.958l0.728-1.117c-1.455-0.948-2.929-1.929-4.422-2.944l-0.749 1.103zM16.476 12.289c1.545 0.959 3.072 1.88 4.583 2.763l0.673-1.151c-1.5-0.877-3.017-1.793-4.553-2.745l-0.703 1.133zM25.721 17.688c1.594 0.869 3.173 1.695 4.739 2.478l0.597-1.192c-1.551-0.776-3.116-1.595-4.698-2.457l-0.638 1.171zM35.292 22.466c1.656 0.747 3.3 1.446 4.937 2.097l0.493-1.239c-1.617-0.643-3.243-1.334-4.881-2.073l-0.548 1.215zM45.251 26.419c1.713 0.583 3.421 1.115 5.129 1.594l0.36-1.284c-1.684-0.473-3.369-0.996-5.059-1.572l-0.43 1.262zM55.582 29.312c1.753 0.384 3.511 0.714 5.277 0.991l0.207-1.317c-1.739-0.273-3.471-0.598-5.198-0.977l-0.285 1.302zM66.185 30.977c1.77 0.17 3.552 0.29 5.352 0.358l0.051-1.332c-1.774-0.068-3.531-0.185-5.275-0.353l-0.128 1.327zM76.904 31.392c1.763-0.029 3.545-0.103 5.351-0.223l-0.088-1.33c-1.784 0.118-3.544 0.191-5.285 0.22l0.022 1.333zM87.6 30.693c1.742-0.194 3.508-0.427 5.3-0.699l-0.2-1.318c-1.776 0.269-3.525 0.5-5.248 0.692l0.148 1.325zM98.176 29.099c1.723-0.322 3.473-0.678 5.251-1.066l-0.284-1.303c-1.766 0.385-3.502 0.738-5.212 1.058l0.245 1.311zM108.631 26.825c1.695-0.416 3.417-0.859 5.168-1.329l-0.346-1.288c-1.742 0.468-3.455 0.908-5.14 1.321l0.317 1.295zM118.942 24.063c0.854-0.246 1.714-0.499 2.582-0.757l-0.38-1.278c-0.864 0.257-1.721 0.508-2.571 0.754l0.37 1.281z"></path>
</symbol>
<symbol id="icon-Arrow-3" viewBox="0 0 108 32">
<path  d="M1.033 1.869c-0.146 0.019-0.25 0.152-0.231 0.298l0.302 2.381c0.019 0.146 0.152 0.25 0.298 0.231s0.25-0.152 0.231-0.298l-0.269-2.116 2.116-0.269c0.146-0.019 0.249-0.152 0.231-0.298s-0.152-0.25-0.298-0.231l-2.381 0.302zM106.603 24.274c-0.723 0.179-1.439 0.354-2.148 0.525l0.125 0.518c0.71-0.172 1.427-0.347 2.15-0.526l-0.128-0.518zM100.202 25.801c-1.45 0.332-2.871 0.647-4.266 0.945l0.112 0.521c1.397-0.299 2.821-0.614 4.273-0.947l-0.119-0.52zM91.656 27.623c-1.461 0.286-2.892 0.552-4.295 0.797l0.092 0.525c1.406-0.246 2.841-0.512 4.305-0.799l-0.103-0.523zM83.053 29.12c-1.47 0.22-2.91 0.414-4.32 0.583l0.063 0.529c1.416-0.17 2.86-0.365 4.336-0.585l-0.079-0.527zM74.397 30.15c-1.484 0.126-2.937 0.222-4.363 0.285l0.024 0.533c1.433-0.064 2.893-0.16 4.384-0.287l-0.045-0.531zM65.676 30.53c-1.477-0.003-2.926-0.043-4.352-0.12l-0.029 0.532c1.436 0.078 2.894 0.118 4.38 0.121l0.001-0.533zM56.977 30.048c-1.455-0.164-2.889-0.371-4.308-0.621l-0.092 0.525c1.43 0.252 2.875 0.46 4.341 0.626l0.060-0.53zM48.405 28.536c-1.408-0.342-2.807-0.728-4.2-1.16l-0.158 0.509c1.404 0.435 2.813 0.825 4.232 1.169l0.126-0.518zM40.088 25.961c-1.344-0.506-2.688-1.056-4.037-1.65l-0.215 0.488c1.358 0.598 2.71 1.151 4.063 1.661l0.188-0.499zM32.106 22.457c-1.276-0.637-2.56-1.313-3.857-2.030l-0.258 0.467c1.303 0.72 2.593 1.399 3.876 2.040l0.238-0.477zM24.464 18.245c-1.223-0.733-2.46-1.501-3.713-2.304l-0.288 0.449c1.258 0.806 2.499 1.576 3.726 2.313l0.274-0.457zM17.111 13.543c-1.18-0.797-2.376-1.624-3.591-2.481l-0.307 0.436c1.218 0.859 2.417 1.688 3.6 2.487l0.299-0.442zM9.972 8.515c-1.152-0.841-2.322-1.708-3.512-2.601l-0.32 0.427c1.191 0.894 2.363 1.762 3.517 2.605l0.315-0.431zM2.979 3.271c-0.578-0.444-1.161-0.893-1.749-1.349l-0.327 0.422c0.589 0.456 1.172 0.906 1.751 1.35l0.325-0.423zM0.999 1.604c-0.292 0.037-0.499 0.304-0.462 0.596l0.605 4.762c0.037 0.292 0.304 0.499 0.596 0.462s0.499-0.304 0.462-0.596l-0.538-4.233 4.233-0.538c0.292-0.037 0.499-0.304 0.462-0.596s-0.304-0.499-0.596-0.462l-4.762 0.605zM106.539 24.015c-0.722 0.179-1.438 0.353-2.146 0.525l0.25 1.037c0.711-0.172 1.428-0.347 2.152-0.526l-0.256-1.036zM100.142 25.541c-1.449 0.332-2.869 0.646-4.262 0.944l0.223 1.043c1.398-0.299 2.824-0.615 4.277-0.948l-0.238-1.040zM91.605 27.362c-1.459 0.286-2.889 0.551-4.289 0.796l0.183 1.051c1.408-0.246 2.845-0.513 4.311-0.8l-0.205-1.047zM83.013 28.856c-1.468 0.219-2.905 0.414-4.313 0.582l0.127 1.059c1.419-0.17 2.866-0.366 4.343-0.587l-0.158-1.055zM74.374 29.884c-1.481 0.126-2.93 0.221-4.352 0.284l0.047 1.066c1.437-0.064 2.901-0.16 4.395-0.287l-0.090-1.063zM65.676 30.263c-1.472-0.003-2.916-0.043-4.338-0.12l-0.058 1.065c1.441 0.078 2.904 0.119 4.394 0.122l0.002-1.067zM57.007 29.783c-1.449-0.164-2.878-0.37-4.292-0.618l-0.185 1.050c1.436 0.253 2.886 0.462 4.357 0.628l0.12-1.060zM48.467 28.276c-1.403-0.34-2.796-0.725-4.184-1.156l-0.316 1.019c1.409 0.437 2.823 0.828 4.248 1.174l0.251-1.037zM40.182 25.711c-1.339-0.504-2.678-1.052-4.023-1.644l-0.43 0.976c1.362 0.6 2.719 1.155 4.077 1.666l0.376-0.998zM32.225 22.218c-1.272-0.635-2.553-1.31-3.847-2.024l-0.516 0.934c1.306 0.721 2.6 1.403 3.886 2.045l0.476-0.954zM24.601 18.016c-1.22-0.732-2.455-1.498-3.706-2.3l-0.575 0.898c1.26 0.807 2.503 1.579 3.733 2.317l0.548-0.915zM17.26 13.322c-1.178-0.796-2.373-1.622-3.587-2.478l-0.615 0.872c1.219 0.86 2.42 1.69 3.604 2.49l0.597-0.884zM10.129 8.299c-1.151-0.84-2.32-1.707-3.509-2.599l-0.64 0.853c1.192 0.895 2.365 1.764 3.52 2.607l0.629-0.861zM3.141 3.060c-0.578-0.443-1.161-0.893-1.748-1.348l-0.653 0.843c0.589 0.456 1.173 0.906 1.752 1.351l0.649-0.846z"></path>
</symbol>
<symbol id="icon-Arrow-4" viewBox="0 0 74 32">
<path  d="M0.745 27.495c-0.1 0.066-0.127 0.2-0.061 0.3l1.072 1.624c0.066 0.1 0.2 0.127 0.3 0.061s0.127-0.2 0.061-0.299l-0.953-1.444 1.444-0.953c0.1-0.066 0.127-0.2 0.061-0.3s-0.2-0.127-0.3-0.061l-1.624 1.072zM73.811 0.264c-0.456 0.364-0.908 0.724-1.356 1.081l0.269 0.338c0.448-0.356 0.9-0.717 1.356-1.081l-0.27-0.338zM69.789 3.46c-0.908 0.718-1.798 1.42-2.67 2.104l0.267 0.34c0.873-0.685 1.763-1.386 2.672-2.105l-0.268-0.339zM64.423 7.667c-0.922 0.716-1.825 1.411-2.708 2.086l0.263 0.344c0.884-0.676 1.787-1.372 2.71-2.088l-0.265-0.342zM58.995 11.815c-0.934 0.701-1.846 1.379-2.738 2.033l0.256 0.349c0.893-0.655 1.807-1.334 2.742-2.036l-0.26-0.346zM53.497 15.845c-0.952 0.678-1.881 1.328-2.789 1.95l0.244 0.357c0.91-0.624 1.841-1.275 2.795-1.954l-0.251-0.352zM47.865 19.696c-0.985 0.642-1.945 1.249-2.884 1.822l0.225 0.369c0.943-0.576 1.907-1.185 2.895-1.829l-0.236-0.362zM42.052 23.234c-1.026 0.575-2.028 1.107-3.012 1.598l0.193 0.387c0.991-0.495 1.999-1.030 3.030-1.608l-0.211-0.377zM35.963 26.262c-1.072 0.459-2.127 0.869-3.172 1.232l0.142 0.408c1.055-0.367 2.12-0.78 3.201-1.243l-0.17-0.398zM29.544 28.481c-1.106 0.287-2.208 0.523-3.317 0.711l0.072 0.426c1.121-0.19 2.235-0.429 3.353-0.719l-0.109-0.419zM22.859 29.617c-1.113 0.094-2.24 0.144-3.39 0.153l0.003 0.432c1.16-0.009 2.298-0.059 3.423-0.154l-0.036-0.431zM16.074 29.684c-1.105-0.062-2.235-0.157-3.398-0.281l-0.046 0.43c1.169 0.125 2.307 0.221 3.42 0.283l0.024-0.432zM9.308 28.972c-1.094-0.16-2.217-0.343-3.376-0.546l-0.075 0.426c1.162 0.204 2.29 0.387 3.388 0.548l0.063-0.428zM2.593 27.802c-0.554-0.109-1.115-0.222-1.685-0.338l-0.087 0.424c0.571 0.117 1.134 0.23 1.689 0.339l0.083-0.424zM0.626 27.315c-0.199 0.132-0.254 0.4-0.123 0.599l2.144 3.248c0.132 0.199 0.4 0.254 0.599 0.123s0.254-0.4 0.123-0.599l-1.906-2.887 2.887-1.906c0.199-0.132 0.254-0.4 0.123-0.599s-0.4-0.254-0.599-0.123l-3.248 2.144zM73.676 0.095c-0.456 0.364-0.908 0.724-1.355 1.081l0.539 0.677c0.448-0.356 0.9-0.717 1.356-1.081l-0.54-0.676zM69.655 3.291c-0.908 0.718-1.798 1.419-2.67 2.103l0.534 0.681c0.873-0.685 1.764-1.386 2.672-2.105l-0.537-0.678zM64.291 7.496c-0.922 0.715-1.824 1.41-2.707 2.085l0.525 0.687c0.885-0.676 1.788-1.372 2.711-2.089l-0.53-0.683zM58.865 11.643c-0.933 0.701-1.845 1.378-2.736 2.032l0.512 0.697c0.894-0.656 1.808-1.335 2.744-2.037l-0.519-0.692zM53.372 15.668c-0.951 0.677-1.879 1.326-2.786 1.947l0.489 0.713c0.911-0.624 1.843-1.276 2.799-1.956l-0.502-0.705zM47.747 19.515c-0.983 0.641-1.942 1.246-2.879 1.818l0.451 0.738c0.945-0.577 1.911-1.187 2.9-1.832l-0.472-0.725zM41.946 23.046c-1.023 0.573-2.022 1.104-3.003 1.594l0.386 0.774c0.994-0.497 2.006-1.034 3.039-1.613l-0.423-0.755zM35.878 26.064c-1.068 0.457-2.118 0.866-3.158 1.227l0.284 0.817c1.060-0.368 2.13-0.784 3.215-1.249l-0.341-0.795zM29.49 28.271c-1.1 0.285-2.196 0.52-3.298 0.707l0.145 0.853c1.127-0.191 2.248-0.431 3.371-0.723l-0.217-0.837zM22.841 29.401c-1.107 0.093-2.229 0.143-3.374 0.152l0.007 0.865c1.165-0.009 2.309-0.060 3.439-0.155l-0.072-0.862zM16.086 29.468c-1.101-0.062-2.228-0.156-3.387-0.28l-0.092 0.86c1.172 0.126 2.314 0.221 3.431 0.284l0.049-0.864zM9.339 28.758c-1.091-0.16-2.213-0.342-3.37-0.545l-0.15 0.852c1.164 0.204 2.293 0.388 3.394 0.549l0.125-0.856zM2.635 27.59c-0.553-0.109-1.114-0.221-1.684-0.338l-0.173 0.847c0.571 0.117 1.135 0.23 1.69 0.339l0.167-0.849z"></path>
</symbol>
<symbol id="icon-Arrow-5" viewBox="0 0 30 32">
<path  d="M29.753 0.79c0.015-0.021 0.010-0.051-0.011-0.066l-0.349-0.248c-0.022-0.015-0.051-0.010-0.066 0.011s-0.010 0.051 0.011 0.066l0.31 0.221-0.221 0.31c-0.015 0.021-0.010 0.051 0.011 0.066s0.051 0.010 0.066-0.011l0.248-0.349zM0.236 31.824c0.039-0.124 0.077-0.248 0.116-0.372l-0.091-0.028c-0.039 0.124-0.077 0.248-0.116 0.372l0.091 0.028zM0.583 30.717c0.077-0.243 0.154-0.484 0.231-0.723l-0.091-0.029c-0.077 0.239-0.154 0.48-0.232 0.723l0.091 0.029zM1.054 29.26c0.080-0.244 0.161-0.487 0.241-0.727l-0.090-0.030c-0.080 0.241-0.161 0.483-0.241 0.728l0.090 0.030zM1.538 27.811c0.084-0.246 0.168-0.489 0.251-0.731l-0.090-0.031c-0.084 0.242-0.168 0.485-0.252 0.731l0.090 0.031zM2.042 26.362c0.087-0.244 0.173-0.486 0.26-0.725l-0.090-0.032c-0.087 0.24-0.174 0.482-0.26 0.726l0.090 0.032zM2.565 24.918c0.089-0.241 0.179-0.479 0.268-0.715l-0.089-0.034c-0.090 0.236-0.179 0.475-0.269 0.716l0.089 0.033zM3.11 23.484c0.093-0.238 0.185-0.473 0.278-0.705l-0.088-0.035c-0.093 0.233-0.186 0.468-0.279 0.706l0.089 0.034zM3.679 22.061c0.097-0.237 0.195-0.47 0.292-0.702l-0.088-0.037c-0.098 0.232-0.196 0.466-0.293 0.703l0.088 0.036zM4.276 20.65c0.102-0.235 0.205-0.468 0.308-0.698l-0.087-0.039c-0.103 0.23-0.206 0.463-0.309 0.699l0.087 0.038zM4.903 19.253c0.108-0.233 0.217-0.463 0.326-0.691l-0.086-0.041c-0.109 0.228-0.218 0.458-0.327 0.692l0.086 0.040zM5.567 17.873c0.114-0.23 0.23-0.457 0.345-0.681l-0.085-0.044c-0.116 0.225-0.231 0.452-0.346 0.683l0.085 0.042zM6.269 16.512c0.121-0.226 0.243-0.449 0.366-0.669l-0.083-0.046c-0.123 0.221-0.245 0.444-0.367 0.671l0.084 0.045zM7.017 15.175c0.129-0.221 0.259-0.439 0.389-0.654l-0.081-0.050c-0.131 0.215-0.261 0.434-0.39 0.656l0.082 0.048zM7.813 13.867c0.138-0.216 0.276-0.429 0.416-0.638l-0.079-0.053c-0.14 0.21-0.279 0.423-0.417 0.64l0.080 0.051zM8.663 12.594c0.147-0.21 0.296-0.417 0.446-0.621l-0.077-0.057c-0.15 0.204-0.3 0.412-0.448 0.622l0.078 0.055zM9.571 11.364c0.158-0.203 0.318-0.403 0.479-0.599l-0.074-0.060c-0.162 0.197-0.322 0.397-0.48 0.601l0.075 0.058zM10.541 10.182c0.169-0.194 0.339-0.385 0.511-0.572l-0.070-0.065c-0.173 0.188-0.344 0.379-0.513 0.574l0.072 0.062zM11.579 9.055c0.179-0.183 0.36-0.362 0.542-0.538l-0.066-0.069c-0.183 0.177-0.365 0.357-0.544 0.54l0.068 0.067zM12.681 7.994c0.19-0.171 0.381-0.339 0.575-0.503l-0.062-0.073c-0.195 0.165-0.387 0.333-0.577 0.505l0.064 0.071zM13.848 7.005c0.2-0.159 0.402-0.314 0.607-0.466l-0.057-0.076c-0.205 0.153-0.409 0.308-0.609 0.468l0.059 0.075zM15.076 6.094c0.209-0.145 0.421-0.287 0.635-0.426l-0.052-0.080c-0.215 0.139-0.428 0.282-0.638 0.428l0.054 0.078zM16.36 5.262c0.218-0.132 0.439-0.26 0.662-0.386l-0.047-0.083c-0.224 0.126-0.446 0.255-0.664 0.388l0.049 0.082zM17.693 4.511c0.225-0.118 0.452-0.233 0.682-0.346l-0.042-0.086c-0.231 0.113-0.459 0.229-0.685 0.347l0.044 0.084zM19.069 3.838c0.23-0.105 0.463-0.207 0.698-0.307l-0.037-0.088c-0.236 0.1-0.47 0.203-0.701 0.308l0.039 0.087zM20.477 3.24c0.235-0.093 0.474-0.184 0.715-0.273l-0.033-0.089c-0.242 0.089-0.481 0.18-0.717 0.273l0.035 0.089zM21.912 2.711c0.241-0.082 0.484-0.163 0.73-0.242l-0.029-0.091c-0.246 0.079-0.49 0.16-0.731 0.242l0.031 0.090zM23.37 2.245c0.244-0.073 0.49-0.144 0.739-0.213l-0.026-0.092c-0.25 0.069-0.497 0.141-0.741 0.213l0.027 0.091zM24.846 1.834c0.246-0.064 0.494-0.126 0.745-0.187l-0.022-0.093c-0.251 0.061-0.5 0.123-0.746 0.187l0.024 0.092zM26.334 1.473c0.247-0.056 0.497-0.111 0.749-0.164l-0.020-0.093c-0.253 0.054-0.503 0.108-0.75 0.164l0.021 0.093zM27.833 1.155c0.248-0.049 0.499-0.097 0.752-0.144l-0.017-0.094c-0.254 0.047-0.505 0.095-0.754 0.145l0.018 0.093zM29.34 0.874c0.127-0.022 0.254-0.044 0.382-0.066l-0.016-0.094c-0.128 0.022-0.256 0.043-0.383 0.066l0.016 0.094zM29.792 0.817c0.030-0.043 0.020-0.102-0.022-0.133l-0.698-0.497c-0.043-0.030-0.102-0.020-0.133 0.022s-0.020 0.102 0.022 0.133l0.621 0.442-0.442 0.621c-0.030 0.043-0.020 0.102 0.022 0.133s0.102 0.020 0.133-0.022l0.497-0.698zM0.281 31.838c0.039-0.124 0.077-0.248 0.116-0.372l-0.182-0.057c-0.039 0.123-0.077 0.247-0.116 0.372l0.182 0.056zM0.629 30.731c0.077-0.243 0.154-0.484 0.231-0.723l-0.181-0.058c-0.077 0.239-0.154 0.481-0.232 0.724l0.182 0.058zM1.099 29.274c0.080-0.244 0.161-0.487 0.241-0.727l-0.181-0.060c-0.080 0.241-0.161 0.483-0.241 0.728l0.181 0.059zM1.583 27.826c0.084-0.246 0.167-0.489 0.251-0.73l-0.18-0.063c-0.084 0.242-0.168 0.486-0.252 0.732l0.18 0.061zM2.087 26.378c0.087-0.244 0.173-0.486 0.26-0.725l-0.179-0.065c-0.087 0.24-0.174 0.482-0.26 0.726l0.179 0.064zM2.61 24.934c0.089-0.24 0.179-0.478 0.268-0.714l-0.178-0.068c-0.090 0.236-0.179 0.475-0.269 0.716l0.179 0.066zM3.155 23.501c0.092-0.237 0.185-0.472 0.278-0.705l-0.177-0.071c-0.093 0.233-0.186 0.469-0.279 0.707l0.178 0.069zM3.723 22.079c0.097-0.236 0.195-0.47 0.292-0.702l-0.175-0.074c-0.098 0.232-0.196 0.466-0.293 0.703l0.176 0.072zM4.319 20.669c0.102-0.235 0.205-0.467 0.308-0.697l-0.174-0.078c-0.103 0.23-0.206 0.463-0.309 0.699l0.175 0.076zM4.947 19.273c0.108-0.233 0.217-0.463 0.326-0.69l-0.172-0.082c-0.109 0.228-0.218 0.459-0.327 0.692l0.173 0.080zM5.609 17.894c0.114-0.23 0.229-0.457 0.345-0.681l-0.169-0.087c-0.116 0.225-0.231 0.453-0.346 0.683l0.171 0.085zM6.311 16.534c0.121-0.226 0.243-0.449 0.366-0.669l-0.166-0.093c-0.123 0.221-0.246 0.445-0.367 0.671l0.168 0.090zM7.058 15.198c0.129-0.221 0.258-0.439 0.389-0.653l-0.163-0.099c-0.131 0.216-0.261 0.434-0.391 0.656l0.165 0.096zM7.853 13.892c0.137-0.216 0.276-0.428 0.415-0.637l-0.158-0.106c-0.14 0.21-0.28 0.424-0.418 0.641l0.161 0.102zM8.702 12.621c0.147-0.21 0.296-0.417 0.446-0.62l-0.153-0.113c-0.151 0.204-0.3 0.412-0.448 0.623l0.156 0.109zM9.608 11.393c0.158-0.203 0.317-0.402 0.478-0.598l-0.147-0.121c-0.162 0.197-0.322 0.398-0.481 0.602l0.15 0.117zM10.577 10.213c0.168-0.194 0.339-0.384 0.511-0.571l-0.14-0.129c-0.173 0.188-0.345 0.38-0.514 0.575l0.144 0.125zM11.613 9.088c0.178-0.183 0.359-0.362 0.541-0.537l-0.132-0.137c-0.184 0.177-0.366 0.357-0.545 0.541l0.136 0.133zM12.713 8.029c0.189-0.171 0.38-0.338 0.574-0.502l-0.123-0.145c-0.195 0.165-0.388 0.334-0.579 0.506l0.128 0.141zM13.878 7.043c0.2-0.158 0.401-0.313 0.606-0.465l-0.114-0.153c-0.206 0.153-0.409 0.309-0.61 0.469l0.118 0.149zM15.104 6.133c0.209-0.145 0.42-0.287 0.634-0.425l-0.104-0.16c-0.216 0.14-0.429 0.282-0.639 0.429l0.109 0.157zM16.385 5.303c0.218-0.131 0.438-0.26 0.661-0.385l-0.093-0.166c-0.225 0.126-0.446 0.256-0.666 0.388l0.099 0.163zM17.715 4.553c0.224-0.118 0.451-0.233 0.681-0.345l-0.084-0.171c-0.231 0.113-0.46 0.229-0.686 0.348l0.089 0.169zM19.089 3.881c0.23-0.105 0.462-0.207 0.697-0.307l-0.074-0.175c-0.237 0.1-0.47 0.203-0.702 0.309l0.079 0.173zM20.495 3.284c0.235-0.093 0.473-0.184 0.714-0.272l-0.066-0.179c-0.242 0.089-0.481 0.18-0.718 0.274l0.070 0.177zM21.928 2.756c0.24-0.082 0.483-0.163 0.729-0.241l-0.058-0.181c-0.247 0.079-0.491 0.16-0.732 0.243l0.062 0.18zM23.384 2.291c0.243-0.073 0.49-0.143 0.738-0.213l-0.051-0.184c-0.25 0.070-0.497 0.141-0.742 0.214l0.054 0.183zM24.858 1.88c0.245-0.064 0.493-0.126 0.744-0.187l-0.045-0.185c-0.252 0.061-0.501 0.123-0.747 0.188l0.048 0.184zM26.345 1.519c0.247-0.056 0.496-0.111 0.748-0.164l-0.040-0.186c-0.253 0.054-0.503 0.108-0.751 0.165l0.042 0.186zM27.843 1.201c0.248-0.049 0.499-0.097 0.752-0.144l-0.035-0.187c-0.254 0.047-0.505 0.095-0.754 0.145l0.037 0.187zM29.348 0.921c0.127-0.022 0.254-0.044 0.382-0.066l-0.032-0.188c-0.128 0.022-0.256 0.044-0.383 0.066l0.033 0.188z"></path>
</symbol>
<symbol id="icon-Arrow-6" viewBox="0 0 57 32">
<path  d="M56.874 2.147c0.045-0.055 0.037-0.136-0.018-0.182l-0.898-0.737c-0.055-0.045-0.136-0.037-0.182 0.018s-0.037 0.136 0.018 0.182l0.798 0.655-0.654 0.798c-0.045 0.055-0.037 0.136 0.018 0.182s0.136 0.037 0.181-0.018l0.737-0.898zM0.629 31.546c0.17-0.309 0.341-0.615 0.513-0.918l-0.225-0.127c-0.172 0.304-0.343 0.611-0.514 0.921l0.226 0.125zM2.191 28.824c0.362-0.606 0.727-1.197 1.095-1.776l-0.218-0.139c-0.369 0.58-0.735 1.174-1.099 1.782l0.221 0.133zM4.433 25.307c0.397-0.582 0.797-1.149 1.203-1.702l-0.208-0.153c-0.408 0.555-0.81 1.125-1.208 1.709l0.213 0.145zM6.901 21.949c0.437-0.549 0.88-1.083 1.331-1.602l-0.195-0.169c-0.453 0.522-0.899 1.059-1.338 1.611l0.202 0.161zM9.634 18.803c0.482-0.506 0.973-0.997 1.473-1.474l-0.178-0.187c-0.504 0.48-0.997 0.974-1.482 1.483l0.187 0.178zM12.652 15.932c0.527-0.453 1.065-0.891 1.615-1.316l-0.158-0.204c-0.553 0.427-1.095 0.869-1.625 1.324l0.168 0.196zM15.948 13.386c0.568-0.393 1.148-0.773 1.742-1.14l-0.136-0.219c-0.598 0.37-1.182 0.752-1.753 1.148l0.147 0.212zM19.487 11.194c0.601-0.333 1.216-0.654 1.846-0.965l-0.114-0.231c-0.633 0.313-1.252 0.636-1.857 0.971l0.125 0.226zM23.222 9.346c0.627-0.277 1.268-0.545 1.924-0.804l-0.095-0.24c-0.659 0.26-1.303 0.53-1.934 0.808l0.104 0.236zM27.1 7.81c0.645-0.229 1.304-0.45 1.978-0.664l-0.078-0.246c-0.676 0.215-1.338 0.437-1.986 0.667l0.086 0.243zM31.075 6.543c0.657-0.188 1.328-0.371 2.013-0.548l-0.065-0.25c-0.686 0.178-1.359 0.361-2.019 0.55l0.071 0.248zM35.112 5.495c0.666-0.156 1.344-0.308 2.036-0.455l-0.054-0.252c-0.693 0.147-1.373 0.299-2.041 0.456l0.059 0.251zM39.193 4.626c0.673-0.13 1.357-0.257 2.054-0.38l-0.045-0.254c-0.698 0.123-1.384 0.25-2.058 0.381l0.049 0.253zM43.309 3.896c0.679-0.11 1.37-0.217 2.071-0.322l-0.038-0.255c-0.703 0.105-1.394 0.212-2.075 0.322l0.041 0.255zM47.439 3.28c0.679-0.093 1.368-0.184 2.067-0.273l-0.032-0.256c-0.7 0.089-1.39 0.18-2.070 0.273l0.035 0.256zM51.583 2.754c0.685-0.081 1.38-0.159 2.085-0.236l-0.028-0.257c-0.706 0.077-1.401 0.156-2.087 0.237l0.030 0.256zM55.735 2.299c0.348-0.036 0.699-0.071 1.052-0.106l-0.025-0.257c-0.354 0.035-0.705 0.070-1.053 0.106l0.026 0.257zM56.974 2.228c0.090-0.11 0.074-0.273-0.036-0.363l-1.796-1.473c-0.11-0.090-0.273-0.074-0.363 0.036s-0.074 0.273 0.036 0.363l1.596 1.309-1.309 1.596c-0.091 0.11-0.075 0.273 0.036 0.363s0.273 0.074 0.363-0.036l1.473-1.796zM0.742 31.609c0.17-0.309 0.341-0.615 0.512-0.917l-0.449-0.254c-0.172 0.304-0.344 0.611-0.515 0.922l0.452 0.249zM2.302 28.89c0.362-0.605 0.726-1.195 1.093-1.773l-0.435-0.277c-0.37 0.581-0.737 1.176-1.101 1.785l0.443 0.265zM4.539 25.38c0.396-0.581 0.796-1.147 1.201-1.698l-0.416-0.305c-0.409 0.557-0.812 1.128-1.211 1.713l0.427 0.291zM7.002 22.029c0.436-0.548 0.878-1.080 1.327-1.598l-0.39-0.338c-0.454 0.524-0.901 1.062-1.341 1.615l0.404 0.321zM9.727 18.892c0.481-0.505 0.97-0.994 1.469-1.469l-0.356-0.374c-0.505 0.481-1 0.977-1.487 1.487l0.374 0.356zM12.736 16.030c0.525-0.451 1.061-0.888 1.609-1.311l-0.315-0.409c-0.555 0.429-1.098 0.871-1.63 1.328l0.336 0.391zM16.022 13.492c0.566-0.392 1.144-0.77 1.736-1.137l-0.272-0.439c-0.599 0.371-1.185 0.755-1.758 1.151l0.294 0.424zM19.55 11.306c0.6-0.332 1.213-0.652 1.841-0.963l-0.229-0.463c-0.635 0.314-1.255 0.638-1.862 0.974l0.25 0.452zM23.274 9.464c0.626-0.276 1.265-0.544 1.919-0.802l-0.19-0.48c-0.66 0.261-1.306 0.531-1.938 0.81l0.209 0.472zM27.143 7.932c0.644-0.228 1.302-0.449 1.974-0.663l-0.157-0.492c-0.677 0.216-1.34 0.438-1.99 0.668l0.172 0.486zM31.11 6.667c0.656-0.188 1.326-0.371 2.009-0.547l-0.129-0.5c-0.687 0.178-1.361 0.361-2.022 0.551l0.142 0.496zM35.142 5.621c0.665-0.156 1.343-0.307 2.033-0.454l-0.107-0.505c-0.694 0.148-1.375 0.3-2.043 0.456l0.118 0.503zM39.217 4.752c0.672-0.13 1.356-0.257 2.052-0.38l-0.090-0.508c-0.698 0.124-1.385 0.251-2.060 0.381l0.098 0.507zM43.33 4.023c0.679-0.11 1.368-0.217 2.070-0.321l-0.076-0.51c-0.703 0.105-1.395 0.212-2.076 0.322l0.083 0.509zM47.457 3.408c0.678-0.093 1.367-0.184 2.066-0.273l-0.065-0.512c-0.701 0.089-1.391 0.18-2.071 0.273l0.070 0.511zM51.598 2.882c0.685-0.081 1.379-0.159 2.083-0.236l-0.056-0.513c-0.706 0.077-1.402 0.156-2.088 0.237l0.060 0.513zM55.748 2.427c0.348-0.036 0.699-0.071 1.052-0.106l-0.051-0.514c-0.354 0.035-0.705 0.070-1.054 0.106l0.053 0.513z"></path>
</symbol>
<symbol id="icon-Arrow-1" viewBox="0 0 28 32">
<path  d="M0.155 0.725c-0.018 0.019-0.017 0.049 0.002 0.067l0.309 0.293c0.019 0.018 0.049 0.017 0.067-0.002s0.017-0.049-0.002-0.067l-0.275-0.261 0.261-0.275c0.018-0.019 0.017-0.049-0.002-0.067s-0.049-0.017-0.067 0.002l-0.293 0.309zM27.501 31.799c-0.032-0.126-0.065-0.251-0.097-0.376l-0.092 0.024c0.032 0.125 0.065 0.25 0.097 0.376l0.092-0.023zM27.21 30.679c-0.065-0.246-0.129-0.491-0.194-0.733l-0.091 0.024c0.065 0.243 0.129 0.487 0.194 0.733l0.091-0.024zM26.819 29.206c-0.067-0.249-0.134-0.496-0.202-0.741l-0.091 0.025c0.067 0.245 0.134 0.492 0.201 0.741l0.091-0.025zM26.416 27.735c-0.069-0.248-0.138-0.495-0.208-0.739l-0.091 0.026c0.069 0.244 0.138 0.491 0.208 0.739l0.091-0.025zM25.997 26.259c-0.070-0.244-0.14-0.485-0.211-0.724l-0.091 0.027c0.070 0.239 0.14 0.481 0.211 0.724l0.091-0.026zM25.567 24.793c-0.074-0.245-0.147-0.489-0.221-0.729l-0.090 0.028c0.074 0.241 0.147 0.484 0.221 0.729l0.091-0.027zM25.121 23.337c-0.077-0.247-0.154-0.492-0.232-0.734l-0.090 0.029c0.077 0.242 0.155 0.486 0.232 0.733l0.090-0.028zM24.656 21.883c-0.081-0.246-0.162-0.49-0.243-0.731l-0.090 0.030c0.081 0.241 0.162 0.485 0.243 0.731l0.090-0.030zM24.167 20.43c-0.084-0.243-0.168-0.483-0.252-0.72l-0.089 0.032c0.084 0.237 0.168 0.477 0.252 0.72l0.090-0.031zM23.655 18.988c-0.087-0.239-0.175-0.476-0.263-0.71l-0.089 0.033c0.088 0.234 0.176 0.47 0.263 0.709l0.089-0.032zM23.116 17.557c-0.092-0.237-0.185-0.472-0.278-0.703l-0.088 0.035c0.093 0.231 0.186 0.465 0.278 0.702l0.088-0.034zM22.545 16.14c-0.098-0.236-0.197-0.468-0.297-0.698l-0.087 0.038c0.099 0.229 0.198 0.461 0.296 0.697l0.087-0.036zM21.938 14.737c-0.105-0.233-0.211-0.463-0.317-0.69l-0.086 0.040c0.106 0.226 0.212 0.456 0.316 0.688l0.086-0.039zM21.288 13.353c-0.112-0.23-0.226-0.456-0.34-0.678l-0.084 0.043c0.114 0.222 0.227 0.447 0.339 0.677l0.085-0.042zM20.59 11.993c-0.121-0.225-0.243-0.446-0.366-0.664l-0.082 0.047c0.123 0.217 0.244 0.438 0.365 0.662l0.084-0.045zM19.837 10.662c-0.132-0.221-0.265-0.437-0.399-0.649l-0.080 0.051c0.134 0.212 0.266 0.428 0.397 0.647l0.081-0.049zM19.021 9.37c-0.144-0.215-0.289-0.425-0.435-0.63l-0.077 0.055c0.146 0.205 0.291 0.414 0.434 0.628l0.079-0.053zM18.135 8.127c-0.157-0.206-0.316-0.408-0.476-0.605l-0.073 0.060c0.16 0.196 0.318 0.397 0.474 0.602l0.075-0.057zM17.166 6.939c-0.169-0.193-0.341-0.382-0.514-0.565l-0.069 0.065c0.173 0.183 0.343 0.37 0.512 0.563l0.071-0.062zM16.113 5.827c-0.184-0.179-0.37-0.353-0.558-0.522l-0.063 0.071c0.187 0.168 0.373 0.341 0.555 0.519l0.066-0.068zM14.974 4.807c-0.199-0.163-0.4-0.32-0.604-0.473l-0.057 0.076c0.203 0.151 0.403 0.308 0.6 0.47l0.060-0.073zM13.747 3.891c-0.212-0.143-0.426-0.281-0.644-0.414l-0.049 0.081c0.216 0.132 0.43 0.269 0.64 0.412l0.053-0.078zM12.44 3.092c-0.223-0.122-0.45-0.24-0.679-0.352l-0.042 0.085c0.228 0.112 0.453 0.228 0.676 0.35l0.046-0.083zM11.065 2.419c-0.233-0.101-0.469-0.197-0.708-0.289l-0.034 0.088c0.238 0.091 0.473 0.187 0.705 0.288l0.038-0.087zM9.637 1.872c-0.241-0.081-0.485-0.157-0.732-0.229l-0.026 0.091c0.246 0.072 0.489 0.148 0.728 0.228l0.030-0.090zM8.166 1.443c-0.245-0.061-0.493-0.119-0.744-0.172l-0.020 0.093c0.25 0.053 0.497 0.11 0.741 0.171l0.023-0.092zM6.668 1.124c-0.248-0.044-0.499-0.085-0.753-0.121l-0.014 0.094c0.253 0.037 0.503 0.077 0.75 0.121l0.017-0.093zM5.157 0.904c-0.252-0.029-0.506-0.055-0.764-0.078l-0.008 0.094c0.257 0.023 0.511 0.049 0.762 0.078l0.011-0.094zM3.634 0.767c-0.253-0.016-0.509-0.030-0.768-0.040l-0.004 0.095c0.258 0.011 0.514 0.024 0.766 0.040l0.006-0.094zM2.106 0.704c-0.253-0.005-0.508-0.008-0.766-0.008l-0 0.095c0.258 0 0.513 0.003 0.765 0.008l0.002-0.095zM0.576 0.702c-0.129 0.002-0.258 0.005-0.388 0.008l0.002 0.095c0.13-0.003 0.259-0.006 0.387-0.008l-0.002-0.095zM0.121 0.692c-0.036 0.038-0.035 0.098 0.003 0.134l0.618 0.587c0.038 0.036 0.098 0.034 0.134-0.003s0.034-0.098-0.003-0.134l-0.549-0.522 0.522-0.549c0.036-0.038 0.034-0.098-0.003-0.134s-0.098-0.035-0.134 0.003l-0.587 0.618zM27.547 31.787c-0.032-0.126-0.065-0.251-0.097-0.376l-0.183 0.047c0.032 0.125 0.065 0.25 0.097 0.376l0.183-0.047zM27.256 30.667c-0.065-0.246-0.129-0.491-0.194-0.734l-0.183 0.049c0.065 0.243 0.129 0.487 0.194 0.733l0.183-0.048zM26.864 29.194c-0.067-0.249-0.134-0.496-0.202-0.741l-0.183 0.050c0.067 0.245 0.134 0.492 0.201 0.741l0.183-0.049zM26.461 27.722c-0.069-0.249-0.138-0.495-0.208-0.74l-0.182 0.052c0.069 0.244 0.138 0.49 0.208 0.739l0.182-0.051zM26.043 26.246c-0.070-0.244-0.14-0.485-0.211-0.725l-0.182 0.053c0.070 0.239 0.14 0.48 0.211 0.724l0.182-0.052zM25.612 24.78c-0.073-0.245-0.147-0.489-0.221-0.73l-0.181 0.055c0.074 0.241 0.147 0.484 0.221 0.729l0.181-0.054zM25.166 23.323c-0.077-0.247-0.155-0.492-0.232-0.734l-0.18 0.058c0.077 0.242 0.155 0.486 0.232 0.733l0.181-0.057zM24.701 21.869c-0.081-0.247-0.162-0.491-0.243-0.732l-0.18 0.060c0.081 0.241 0.162 0.485 0.243 0.73l0.18-0.059zM24.212 20.415c-0.084-0.243-0.168-0.483-0.252-0.721l-0.178 0.063c0.084 0.237 0.168 0.477 0.252 0.719l0.179-0.062zM23.7 18.972c-0.087-0.24-0.175-0.476-0.264-0.711l-0.177 0.067c0.088 0.234 0.176 0.47 0.263 0.709l0.178-0.065zM23.16 17.54c-0.092-0.237-0.185-0.472-0.278-0.704l-0.176 0.071c0.093 0.231 0.185 0.465 0.278 0.702l0.176-0.069zM22.589 16.121c-0.098-0.236-0.197-0.469-0.297-0.698l-0.174 0.075c0.099 0.229 0.198 0.461 0.296 0.696l0.175-0.073zM21.981 14.718c-0.105-0.233-0.211-0.464-0.317-0.69l-0.171 0.080c0.106 0.226 0.211 0.455 0.316 0.688l0.173-0.078zM21.331 13.332c-0.113-0.23-0.226-0.456-0.34-0.679l-0.169 0.086c0.114 0.222 0.226 0.447 0.339 0.676l0.17-0.083zM20.632 11.97c-0.121-0.225-0.244-0.447-0.367-0.665l-0.165 0.093c0.122 0.217 0.244 0.437 0.365 0.661l0.167-0.090zM19.878 10.638c-0.132-0.221-0.265-0.438-0.399-0.65l-0.16 0.101c0.134 0.211 0.266 0.427 0.397 0.646l0.162-0.097zM19.060 9.344c-0.144-0.215-0.289-0.425-0.436-0.631l-0.154 0.11c0.146 0.204 0.29 0.413 0.433 0.627l0.157-0.105zM18.172 8.099c-0.157-0.207-0.316-0.409-0.477-0.606l-0.147 0.12c0.159 0.196 0.317 0.396 0.473 0.601l0.151-0.115zM17.201 6.908c-0.17-0.194-0.342-0.383-0.516-0.567l-0.138 0.13c0.172 0.182 0.342 0.369 0.511 0.561l0.142-0.125zM16.146 5.793c-0.184-0.18-0.371-0.354-0.56-0.524l-0.126 0.141c0.187 0.168 0.372 0.34 0.554 0.518l0.132-0.136zM15.004 4.77c-0.199-0.163-0.401-0.321-0.605-0.474l-0.113 0.152c0.202 0.151 0.402 0.307 0.599 0.469l0.12-0.146zM13.773 3.851c-0.212-0.144-0.427-0.282-0.646-0.415l-0.099 0.162c0.216 0.132 0.428 0.269 0.638 0.411l0.106-0.157zM12.463 3.051c-0.224-0.123-0.451-0.241-0.681-0.353l-0.083 0.17c0.228 0.111 0.452 0.228 0.674 0.349l0.091-0.166zM11.084 2.376c-0.234-0.101-0.47-0.198-0.71-0.29l-0.068 0.177c0.237 0.091 0.472 0.187 0.703 0.287l0.075-0.174zM9.652 1.827c-0.241-0.081-0.486-0.157-0.734-0.23l-0.053 0.182c0.246 0.071 0.488 0.147 0.727 0.227l0.060-0.18zM8.178 1.397c-0.245-0.061-0.494-0.119-0.746-0.172l-0.039 0.185c0.25 0.053 0.496 0.11 0.739 0.171l0.046-0.184zM6.676 1.078c-0.248-0.044-0.5-0.085-0.754-0.122l-0.027 0.187c0.253 0.037 0.502 0.077 0.749 0.121l0.033-0.186zM5.162 0.857c-0.252-0.029-0.507-0.055-0.766-0.078l-0.017 0.189c0.257 0.023 0.51 0.049 0.761 0.078l0.022-0.188zM3.637 0.72c-0.253-0.016-0.51-0.030-0.769-0.040l-0.008 0.189c0.258 0.011 0.513 0.024 0.765 0.040l0.012-0.189zM2.107 0.656c-0.253-0.005-0.509-0.008-0.767-0.008l-0 0.189c0.257 0 0.512 0.003 0.764 0.008l0.004-0.189zM0.575 0.654c-0.129 0.002-0.258 0.005-0.388 0.008l0.005 0.189c0.13-0.003 0.258-0.006 0.387-0.008l-0.003-0.189z"></path>
</symbol>
<symbol id="icon-Arrow-2" viewBox="0 0 40 32">
<path  d="M0.264 1.238c-0.031 0.032-0.029 0.084 0.003 0.114l0.529 0.499c0.032 0.031 0.084 0.029 0.114-0.003s0.029-0.084-0.003-0.114l-0.471-0.443 0.443-0.471c0.031-0.032 0.029-0.084-0.003-0.114s-0.084-0.029-0.114 0.003l-0.499 0.529zM39.825 31.633c-0.121-0.188-0.241-0.375-0.361-0.561l-0.136 0.088c0.12 0.186 0.24 0.373 0.361 0.561l0.136-0.087zM38.749 29.97c-0.241-0.371-0.482-0.738-0.72-1.1l-0.135 0.089c0.238 0.362 0.478 0.729 0.719 1.099l0.135-0.088zM37.305 27.775c-0.246-0.369-0.49-0.734-0.732-1.094l-0.134 0.090c0.242 0.36 0.486 0.724 0.731 1.094l0.134-0.090zM35.839 25.596c-0.251-0.368-0.499-0.731-0.747-1.089l-0.133 0.092c0.247 0.358 0.496 0.72 0.746 1.088l0.133-0.091zM34.348 23.437c-0.257-0.366-0.512-0.727-0.765-1.082l-0.132 0.094c0.253 0.355 0.508 0.715 0.764 1.081l0.132-0.093zM32.818 21.292c-0.261-0.359-0.52-0.713-0.778-1.061l-0.13 0.096c0.257 0.348 0.516 0.701 0.777 1.060l0.131-0.095zM31.251 19.175c-0.266-0.352-0.531-0.698-0.794-1.038l-0.128 0.099c0.263 0.34 0.527 0.685 0.793 1.037l0.129-0.097zM29.643 17.097c-0.277-0.349-0.552-0.69-0.826-1.026l-0.125 0.102c0.273 0.335 0.548 0.676 0.824 1.024l0.127-0.101zM27.981 15.063c-0.287-0.341-0.572-0.674-0.856-1l-0.122 0.106c0.283 0.325 0.568 0.658 0.854 0.998l0.124-0.104zM26.25 13.077c-0.298-0.33-0.596-0.652-0.891-0.966l-0.118 0.111c0.295 0.313 0.591 0.635 0.889 0.964l0.12-0.108zM24.449 11.165c-0.312-0.317-0.623-0.624-0.933-0.924l-0.112 0.116c0.309 0.298 0.619 0.605 0.93 0.921l0.115-0.113zM22.554 9.338c-0.329-0.301-0.658-0.592-0.986-0.874l-0.105 0.123c0.327 0.281 0.655 0.571 0.983 0.87l0.109-0.119zM20.554 7.623c-0.347-0.278-0.695-0.547-1.042-0.805l-0.096 0.13c0.346 0.257 0.691 0.524 1.037 0.801l0.101-0.126zM18.44 6.055c-0.367-0.25-0.735-0.49-1.103-0.719l-0.085 0.137c0.366 0.228 0.732 0.466 1.097 0.715l0.091-0.133zM16.203 4.666c-0.387-0.216-0.775-0.421-1.165-0.615l-0.072 0.145c0.388 0.193 0.773 0.397 1.158 0.612l0.079-0.141zM13.845 3.493c-0.404-0.177-0.811-0.342-1.22-0.497l-0.057 0.151c0.407 0.154 0.811 0.318 1.213 0.494l0.065-0.148zM11.381 2.563c-0.418-0.134-0.839-0.257-1.264-0.37l-0.041 0.156c0.423 0.112 0.841 0.235 1.256 0.368l0.049-0.154zM8.835 1.885c-0.427-0.092-0.858-0.174-1.294-0.246l-0.027 0.159c0.433 0.072 0.862 0.154 1.287 0.245l0.034-0.158zM6.238 1.451c-0.432-0.053-0.868-0.098-1.31-0.134l-0.013 0.161c0.44 0.036 0.874 0.081 1.303 0.133l0.020-0.16zM3.615 1.233c-0.433-0.020-0.872-0.033-1.315-0.039l-0.002 0.162c0.442 0.006 0.879 0.019 1.31 0.038l0.007-0.161zM0.984 1.197c-0.22 0.004-0.441 0.009-0.663 0.015l0.005 0.162c0.222-0.007 0.442-0.012 0.661-0.015l-0.003-0.162zM0.206 1.182c-0.061 0.065-0.058 0.167 0.007 0.228l1.059 0.997c0.065 0.061 0.167 0.058 0.228-0.007s0.058-0.167-0.007-0.228l-0.941-0.886 0.886-0.941c0.061-0.065 0.058-0.167-0.007-0.228s-0.167-0.058-0.228 0.007l-0.997 1.059zM39.894 31.589c-0.121-0.188-0.241-0.375-0.361-0.561l-0.272 0.175c0.12 0.186 0.24 0.372 0.361 0.56l0.272-0.175zM38.817 29.926c-0.242-0.371-0.482-0.738-0.72-1.1l-0.27 0.178c0.238 0.362 0.478 0.728 0.72 1.099l0.271-0.176zM37.372 27.73c-0.246-0.37-0.49-0.734-0.732-1.095l-0.268 0.18c0.242 0.36 0.486 0.724 0.731 1.093l0.269-0.179zM35.906 25.55c-0.251-0.368-0.5-0.731-0.747-1.089l-0.266 0.184c0.247 0.358 0.495 0.72 0.746 1.087l0.267-0.182zM34.414 23.391c-0.257-0.366-0.512-0.727-0.765-1.083l-0.263 0.188c0.253 0.355 0.507 0.715 0.764 1.081l0.265-0.186zM32.883 21.244c-0.261-0.36-0.52-0.714-0.778-1.062l-0.26 0.192c0.257 0.347 0.516 0.701 0.776 1.059l0.261-0.19zM31.315 19.126c-0.266-0.352-0.531-0.699-0.794-1.039l-0.256 0.198c0.263 0.339 0.527 0.685 0.792 1.036l0.258-0.195zM29.706 17.047c-0.277-0.349-0.552-0.691-0.826-1.027l-0.25 0.204c0.273 0.334 0.547 0.675 0.823 1.023l0.253-0.201zM28.043 15.011c-0.287-0.341-0.573-0.675-0.857-1.001l-0.244 0.212c0.283 0.325 0.567 0.657 0.853 0.997l0.247-0.208zM26.31 13.022c-0.299-0.331-0.596-0.653-0.893-0.968l-0.235 0.222c0.295 0.313 0.591 0.634 0.888 0.963l0.24-0.217zM24.506 11.108c-0.312-0.317-0.624-0.625-0.934-0.925l-0.224 0.233c0.309 0.298 0.618 0.604 0.929 0.919l0.23-0.227zM22.608 9.278c-0.33-0.301-0.659-0.593-0.988-0.875l-0.21 0.245c0.326 0.28 0.653 0.57 0.981 0.869l0.218-0.239zM20.604 7.56c-0.348-0.279-0.696-0.548-1.044-0.806l-0.193 0.26c0.345 0.256 0.69 0.523 1.035 0.799l0.202-0.252zM18.485 5.988c-0.368-0.251-0.736-0.491-1.106-0.721l-0.171 0.275c0.366 0.227 0.73 0.465 1.094 0.713l0.182-0.267zM16.242 4.596c-0.388-0.217-0.777-0.423-1.168-0.617l-0.144 0.289c0.386 0.192 0.771 0.396 1.154 0.61l0.158-0.282zM13.877 3.419c-0.405-0.177-0.813-0.343-1.224-0.498l-0.114 0.302c0.406 0.153 0.808 0.317 1.209 0.492l0.129-0.296zM11.405 2.486c-0.419-0.134-0.842-0.258-1.268-0.371l-0.083 0.312c0.421 0.112 0.839 0.234 1.253 0.367l0.099-0.308zM8.852 1.806c-0.428-0.092-0.861-0.174-1.298-0.247l-0.053 0.319c0.432 0.072 0.86 0.153 1.283 0.244l0.068-0.316zM6.248 1.371c-0.433-0.053-0.87-0.098-1.313-0.134l-0.027 0.322c0.439 0.036 0.872 0.080 1.3 0.133l0.039-0.321zM3.618 1.152c-0.434-0.020-0.873-0.033-1.318-0.039l-0.004 0.323c0.441 0.006 0.877 0.018 1.307 0.038l0.015-0.323zM0.982 1.116c-0.22 0.004-0.441 0.009-0.664 0.015l0.010 0.323c0.221-0.007 0.441-0.012 0.66-0.015l-0.005-0.323z"></path>
</symbol>
<symbol id="icon-play" viewBox="0 0 32 32">
<path fill="#fff" style="fill: var(--color1, #fff); stroke: var(--color1, #fff)" stroke="#fff" stroke-linejoin="round" stroke-linecap="round" stroke-miterlimit="4" stroke-width="2.7826" d="M7.023 8.155c0-1.624 1.773-2.626 3.164-1.787l13.017 7.845c1.346 0.811 1.346 2.763 0 3.575l-13.017 7.845c-1.391 0.838-3.164-0.163-3.164-1.787v-15.69z"></path>
</symbol>
</defs>
</svg>
